{
	"asset":{
		"generator":"Khronos glTF Blender I/O v4.3.47",
		"version":"2.0"
	},
	"scene":0,
	"scenes":[
		{
			"name":"Scene",
			"nodes":[
				0
			]
		}
	],
	"nodes":[
		{
			"mesh":0,
			"name":"Bad-monkey.002",
			"scale":[
				0.016960296779870987,
				0.016960296779870987,
				0.016960296779870987
			]
		}
	],
	"materials":[
		{
			"doubleSided":true,
			"name":"Pink-skin.002",
			"pbrMetallicRoughness":{
				"baseColorFactor":[
					1,
					0.04972967505455017,
					0.01696545071899891,
					1
				],
				"metallicFactor":0,
				"roughnessFactor":0.5
			}
		},
		{
			"doubleSided":true,
			"name":"White-eyes.002",
			"pbrMetallicRoughness":{
				"baseColorFactor":[
					0.800000011920929,
					0.800000011920929,
					0.800000011920929,
					1
				],
				"metallicFactor":0,
				"roughnessFactor":0.5
			}
		},
		{
			"doubleSided":true,
			"name":"Black-eyes.002",
			"pbrMetallicRoughness":{
				"baseColorFactor":[
					0,
					0,
					0,
					1
				],
				"metallicFactor":0,
				"roughnessFactor":0.5
			}
		}
	],
	"meshes":[
		{
			"name":"Suzanne_monkeymesh.003",
			"primitives":[
				{
					"attributes":{
						"POSITION":0,
						"NORMAL":1,
						"TEXCOORD_0":2
					},
					"indices":3,
					"material":0
				},
				{
					"attributes":{
						"POSITION":4,
						"NORMAL":5,
						"TEXCOORD_0":6
					},
					"indices":7,
					"material":1
				},
				{
					"attributes":{
						"POSITION":8,
						"NORMAL":9,
						"TEXCOORD_0":10
					},
					"indices":11,
					"material":2
				}
			]
		}
	],
	"accessors":[
		{
			"bufferView":0,
			"componentType":5126,
			"count":647,
			"max":[
				0.6219604015350342,
				2.7126829624176025,
				0.5396958589553833
			],
			"min":[
				-0.6219603419303894,
				1.9159654378890991,
				-0.3031785488128662
			],
			"type":"VEC3"
		},
		{
			"bufferView":1,
			"componentType":5126,
			"count":647,
			"type":"VEC3"
		},
		{
			"bufferView":2,
			"componentType":5126,
			"count":647,
			"type":"VEC2"
		},
		{
			"bufferView":3,
			"componentType":5123,
			"count":3066,
			"type":"SCALAR"
		},
		{
			"bufferView":4,
			"componentType":5126,
			"count":200,
			"max":[
				0.2976074516773224,
				2.6765341758728027,
				0.5194327235221863
			],
			"min":[
				-0.2994298040866852,
				2.4898955821990967,
				0.43642354011535645
			],
			"type":"VEC3"
		},
		{
			"bufferView":5,
			"componentType":5126,
			"count":200,
			"type":"VEC3"
		},
		{
			"bufferView":6,
			"componentType":5126,
			"count":200,
			"type":"VEC2"
		},
		{
			"bufferView":7,
			"componentType":5123,
			"count":720,
			"type":"SCALAR"
		},
		{
			"bufferView":8,
			"componentType":5126,
			"count":4064,
			"max":[
				2.11147403717041,
				3.0589873790740967,
				0.555569589138031
			],
			"min":[
				-2.111473321914673,
				-0.03938426077365875,
				-2.018254041671753
			],
			"type":"VEC3"
		},
		{
			"bufferView":9,
			"componentType":5126,
			"count":4064,
			"type":"VEC3"
		},
		{
			"bufferView":10,
			"componentType":5126,
			"count":4064,
			"type":"VEC2"
		},
		{
			"bufferView":11,
			"componentType":5123,
			"count":20274,
			"type":"SCALAR"
		}
	],
	"bufferViews":[
		{
			"buffer":0,
			"byteLength":7764,
			"byteOffset":0,
			"target":34962
		},
		{
			"buffer":0,
			"byteLength":7764,
			"byteOffset":7764,
			"target":34962
		},
		{
			"buffer":0,
			"byteLength":5176,
			"byteOffset":15528,
			"target":34962
		},
		{
			"buffer":0,
			"byteLength":6132,
			"byteOffset":20704,
			"target":34963
		},
		{
			"buffer":0,
			"byteLength":2400,
			"byteOffset":26836,
			"target":34962
		},
		{
			"buffer":0,
			"byteLength":2400,
			"byteOffset":29236,
			"target":34962
		},
		{
			"buffer":0,
			"byteLength":1600,
			"byteOffset":31636,
			"target":34962
		},
		{
			"buffer":0,
			"byteLength":1440,
			"byteOffset":33236,
			"target":34963
		},
		{
			"buffer":0,
			"byteLength":48768,
			"byteOffset":34676,
			"target":34962
		},
		{
			"buffer":0,
			"byteLength":48768,
			"byteOffset":83444,
			"target":34962
		},
		{
			"buffer":0,
			"byteLength":32512,
			"byteOffset":132212,
			"target":34962
		},
		{
			"buffer":0,
			"byteLength":40548,
			"byteOffset":164724,
			"target":34963
		}
	],
	"buffers":[
		{
			"byteLength":205272,
			"uri":"Bad-monkey.bin"
		}
	]
}
